<mxfile host="app.diagrams.net" modified="2023-04-01T06:41:37.624Z" agent="Mozilla/5.0 (Windows NT 10.0; Win64; x64) AppleWebKit/537.36 (KHTML, like Gecko) Chrome/111.0.0.0 Safari/537.36 Edg/111.0.1661.54" etag="w3yZAZbf5ZVj2axHlWI-" version="21.1.2" type="github">
  <diagram id="kgpKYQtTHZ0yAKxKKP6v" name="Page-1">
    <mxGraphModel dx="1036" dy="585" grid="1" gridSize="10" guides="1" tooltips="1" connect="1" arrows="1" fold="1" page="1" pageScale="1" pageWidth="850" pageHeight="1100" math="0" shadow="0">
      <root>
        <mxCell id="0" />
        <mxCell id="1" parent="0" />
        <mxCell id="cC5hEAi2528CEINLcLog-5" value="Pool" style="swimlane;childLayout=stackLayout;resizeParent=1;resizeParentMax=0;startSize=20;horizontal=0;horizontalStack=1;" parent="1" vertex="1">
          <mxGeometry x="230" y="170" width="390" height="630" as="geometry" />
        </mxCell>
        <mxCell id="cC5hEAi2528CEINLcLog-22" style="edgeStyle=orthogonalEdgeStyle;rounded=0;orthogonalLoop=1;jettySize=auto;html=1;exitX=1;exitY=0.5;exitDx=0;exitDy=0;exitPerimeter=0;" parent="cC5hEAi2528CEINLcLog-5" source="cC5hEAi2528CEINLcLog-12" target="cC5hEAi2528CEINLcLog-18" edge="1">
          <mxGeometry relative="1" as="geometry" />
        </mxCell>
        <mxCell id="cC5hEAi2528CEINLcLog-6" value="quickSort(nums,p, r)" style="swimlane;startSize=20;" parent="cC5hEAi2528CEINLcLog-5" vertex="1">
          <mxGeometry x="20" width="160" height="630" as="geometry">
            <mxRectangle x="20" width="40" height="480" as="alternateBounds" />
          </mxGeometry>
        </mxCell>
        <mxCell id="cC5hEAi2528CEINLcLog-13" style="edgeStyle=orthogonalEdgeStyle;rounded=0;orthogonalLoop=1;jettySize=auto;html=1;exitX=0.5;exitY=1;exitDx=0;exitDy=0;exitPerimeter=0;entryX=0.5;entryY=0;entryDx=0;entryDy=0;entryPerimeter=0;" parent="cC5hEAi2528CEINLcLog-6" source="cC5hEAi2528CEINLcLog-9" target="cC5hEAi2528CEINLcLog-12" edge="1">
          <mxGeometry relative="1" as="geometry" />
        </mxCell>
        <mxCell id="cC5hEAi2528CEINLcLog-9" value="开始" style="strokeWidth=2;html=1;shape=mxgraph.flowchart.start_1;whiteSpace=wrap;" parent="cC5hEAi2528CEINLcLog-6" vertex="1">
          <mxGeometry x="30" y="40" width="100" height="60" as="geometry" />
        </mxCell>
        <mxCell id="cC5hEAi2528CEINLcLog-15" style="edgeStyle=orthogonalEdgeStyle;rounded=0;orthogonalLoop=1;jettySize=auto;html=1;exitX=0;exitY=0.5;exitDx=0;exitDy=0;exitPerimeter=0;" parent="cC5hEAi2528CEINLcLog-6" source="cC5hEAi2528CEINLcLog-12" target="cC5hEAi2528CEINLcLog-14" edge="1">
          <mxGeometry relative="1" as="geometry">
            <Array as="points">
              <mxPoint x="10" y="150" />
              <mxPoint x="10" y="605" />
            </Array>
          </mxGeometry>
        </mxCell>
        <mxCell id="cC5hEAi2528CEINLcLog-16" value="N" style="edgeLabel;html=1;align=center;verticalAlign=middle;resizable=0;points=[];" parent="cC5hEAi2528CEINLcLog-15" vertex="1" connectable="0">
          <mxGeometry x="-0.8314" y="5" relative="1" as="geometry">
            <mxPoint x="15" as="offset" />
          </mxGeometry>
        </mxCell>
        <mxCell id="cC5hEAi2528CEINLcLog-12" value="p &amp;lt; r" style="strokeWidth=2;html=1;shape=mxgraph.flowchart.decision;whiteSpace=wrap;" parent="cC5hEAi2528CEINLcLog-6" vertex="1">
          <mxGeometry x="30" y="120" width="100" height="60" as="geometry" />
        </mxCell>
        <mxCell id="cC5hEAi2528CEINLcLog-14" value="结束" style="strokeWidth=2;html=1;shape=mxgraph.flowchart.terminator;whiteSpace=wrap;" parent="cC5hEAi2528CEINLcLog-6" vertex="1">
          <mxGeometry x="30" y="590" width="100" height="30" as="geometry" />
        </mxCell>
        <mxCell id="cC5hEAi2528CEINLcLog-59" style="edgeStyle=orthogonalEdgeStyle;rounded=0;orthogonalLoop=1;jettySize=auto;html=1;exitX=0.5;exitY=1;exitDx=0;exitDy=0;entryX=0.5;entryY=0;entryDx=0;entryDy=0;" parent="cC5hEAi2528CEINLcLog-6" source="cC5hEAi2528CEINLcLog-53" target="cC5hEAi2528CEINLcLog-58" edge="1">
          <mxGeometry relative="1" as="geometry" />
        </mxCell>
        <mxCell id="cC5hEAi2528CEINLcLog-53" value="quickSort(nums, p, q-1)" style="rounded=1;whiteSpace=wrap;html=1;absoluteArcSize=1;arcSize=14;strokeWidth=2;" parent="cC5hEAi2528CEINLcLog-6" vertex="1">
          <mxGeometry x="15" y="470" width="130" height="30" as="geometry" />
        </mxCell>
        <mxCell id="cC5hEAi2528CEINLcLog-60" style="edgeStyle=orthogonalEdgeStyle;rounded=0;orthogonalLoop=1;jettySize=auto;html=1;exitX=0.5;exitY=1;exitDx=0;exitDy=0;entryX=0.5;entryY=0;entryDx=0;entryDy=0;entryPerimeter=0;" parent="cC5hEAi2528CEINLcLog-6" source="cC5hEAi2528CEINLcLog-58" target="cC5hEAi2528CEINLcLog-14" edge="1">
          <mxGeometry relative="1" as="geometry" />
        </mxCell>
        <mxCell id="cC5hEAi2528CEINLcLog-58" value="quickSort(nums, q, r+1)" style="rounded=1;whiteSpace=wrap;html=1;absoluteArcSize=1;arcSize=14;strokeWidth=2;" parent="cC5hEAi2528CEINLcLog-6" vertex="1">
          <mxGeometry x="15" y="520" width="130" height="30" as="geometry" />
        </mxCell>
        <mxCell id="cC5hEAi2528CEINLcLog-7" value="partition(nums,p, r)" style="swimlane;startSize=20;" parent="cC5hEAi2528CEINLcLog-5" vertex="1">
          <mxGeometry x="180" width="210" height="630" as="geometry" />
        </mxCell>
        <mxCell id="cC5hEAi2528CEINLcLog-20" style="edgeStyle=orthogonalEdgeStyle;rounded=0;orthogonalLoop=1;jettySize=auto;html=1;exitX=0.5;exitY=1;exitDx=0;exitDy=0;entryX=0.5;entryY=0;entryDx=0;entryDy=0;entryPerimeter=0;" parent="cC5hEAi2528CEINLcLog-7" source="cC5hEAi2528CEINLcLog-18" target="cC5hEAi2528CEINLcLog-19" edge="1">
          <mxGeometry relative="1" as="geometry" />
        </mxCell>
        <mxCell id="cC5hEAi2528CEINLcLog-18" value="x = nums[r];&lt;br&gt;i = p - 1;&lt;br&gt;j = p" style="rounded=1;whiteSpace=wrap;html=1;absoluteArcSize=1;arcSize=14;strokeWidth=2;" parent="cC5hEAi2528CEINLcLog-7" vertex="1">
          <mxGeometry x="55" y="125" width="100" height="50" as="geometry" />
        </mxCell>
        <mxCell id="cC5hEAi2528CEINLcLog-24" style="edgeStyle=orthogonalEdgeStyle;rounded=0;orthogonalLoop=1;jettySize=auto;html=1;exitX=0.5;exitY=1;exitDx=0;exitDy=0;exitPerimeter=0;entryX=0.5;entryY=0;entryDx=0;entryDy=0;entryPerimeter=0;" parent="cC5hEAi2528CEINLcLog-7" source="cC5hEAi2528CEINLcLog-19" target="cC5hEAi2528CEINLcLog-23" edge="1">
          <mxGeometry relative="1" as="geometry" />
        </mxCell>
        <mxCell id="cC5hEAi2528CEINLcLog-44" style="edgeStyle=orthogonalEdgeStyle;rounded=0;orthogonalLoop=1;jettySize=auto;html=1;exitX=1;exitY=0.5;exitDx=0;exitDy=0;exitPerimeter=0;entryX=1;entryY=0.5;entryDx=0;entryDy=0;" parent="cC5hEAi2528CEINLcLog-7" source="cC5hEAi2528CEINLcLog-19" target="cC5hEAi2528CEINLcLog-42" edge="1">
          <mxGeometry relative="1" as="geometry" />
        </mxCell>
        <mxCell id="cC5hEAi2528CEINLcLog-19" value="j &amp;lt; r" style="strokeWidth=2;html=1;shape=mxgraph.flowchart.decision;whiteSpace=wrap;" parent="cC5hEAi2528CEINLcLog-7" vertex="1">
          <mxGeometry x="55" y="200" width="100" height="50" as="geometry" />
        </mxCell>
        <mxCell id="cC5hEAi2528CEINLcLog-43" style="edgeStyle=orthogonalEdgeStyle;rounded=0;orthogonalLoop=1;jettySize=auto;html=1;exitX=0.5;exitY=1;exitDx=0;exitDy=0;exitPerimeter=0;entryX=0.5;entryY=0;entryDx=0;entryDy=0;" parent="cC5hEAi2528CEINLcLog-7" source="cC5hEAi2528CEINLcLog-23" target="cC5hEAi2528CEINLcLog-25" edge="1">
          <mxGeometry relative="1" as="geometry" />
        </mxCell>
        <mxCell id="cC5hEAi2528CEINLcLog-51" style="edgeStyle=orthogonalEdgeStyle;rounded=0;orthogonalLoop=1;jettySize=auto;html=1;exitX=0;exitY=0.5;exitDx=0;exitDy=0;exitPerimeter=0;entryX=0;entryY=0.5;entryDx=0;entryDy=0;entryPerimeter=0;" parent="cC5hEAi2528CEINLcLog-7" source="cC5hEAi2528CEINLcLog-23" target="cC5hEAi2528CEINLcLog-19" edge="1">
          <mxGeometry relative="1" as="geometry" />
        </mxCell>
        <mxCell id="cC5hEAi2528CEINLcLog-23" value="nums[j] &amp;lt;= x" style="strokeWidth=2;html=1;shape=mxgraph.flowchart.decision;whiteSpace=wrap;" parent="cC5hEAi2528CEINLcLog-7" vertex="1">
          <mxGeometry x="55" y="270" width="100" height="50" as="geometry" />
        </mxCell>
        <mxCell id="cC5hEAi2528CEINLcLog-49" style="edgeStyle=orthogonalEdgeStyle;rounded=0;orthogonalLoop=1;jettySize=auto;html=1;exitX=0;exitY=0.5;exitDx=0;exitDy=0;entryX=0;entryY=0.5;entryDx=0;entryDy=0;entryPerimeter=0;" parent="cC5hEAi2528CEINLcLog-7" source="cC5hEAi2528CEINLcLog-25" target="cC5hEAi2528CEINLcLog-19" edge="1">
          <mxGeometry relative="1" as="geometry" />
        </mxCell>
        <mxCell id="cC5hEAi2528CEINLcLog-25" value="i++&lt;br&gt;swap(nums[i], nums[j])" style="rounded=1;whiteSpace=wrap;html=1;absoluteArcSize=1;arcSize=14;strokeWidth=2;" parent="cC5hEAi2528CEINLcLog-7" vertex="1">
          <mxGeometry x="35" y="350" width="140" height="40" as="geometry" />
        </mxCell>
        <mxCell id="cC5hEAi2528CEINLcLog-55" style="edgeStyle=orthogonalEdgeStyle;rounded=0;orthogonalLoop=1;jettySize=auto;html=1;exitX=0.5;exitY=1;exitDx=0;exitDy=0;entryX=0.5;entryY=0;entryDx=0;entryDy=0;" parent="cC5hEAi2528CEINLcLog-7" source="cC5hEAi2528CEINLcLog-42" target="cC5hEAi2528CEINLcLog-54" edge="1">
          <mxGeometry relative="1" as="geometry" />
        </mxCell>
        <mxCell id="cC5hEAi2528CEINLcLog-42" value="swap(nums[i+1], nums[r])" style="rounded=1;whiteSpace=wrap;html=1;absoluteArcSize=1;arcSize=14;strokeWidth=2;" parent="cC5hEAi2528CEINLcLog-7" vertex="1">
          <mxGeometry x="35" y="420" width="140" height="30" as="geometry" />
        </mxCell>
        <mxCell id="cC5hEAi2528CEINLcLog-45" value="N" style="text;html=1;align=center;verticalAlign=middle;resizable=0;points=[];autosize=1;strokeColor=none;fillColor=none;" parent="cC5hEAi2528CEINLcLog-7" vertex="1">
          <mxGeometry x="160" y="200" width="30" height="30" as="geometry" />
        </mxCell>
        <mxCell id="cC5hEAi2528CEINLcLog-46" value="Y" style="text;html=1;align=center;verticalAlign=middle;resizable=0;points=[];autosize=1;strokeColor=none;fillColor=none;" parent="cC5hEAi2528CEINLcLog-7" vertex="1">
          <mxGeometry x="110" y="240" width="30" height="30" as="geometry" />
        </mxCell>
        <mxCell id="cC5hEAi2528CEINLcLog-52" value="N" style="text;html=1;align=center;verticalAlign=middle;resizable=0;points=[];autosize=1;strokeColor=none;fillColor=none;" parent="cC5hEAi2528CEINLcLog-7" vertex="1">
          <mxGeometry x="35" y="240" width="30" height="30" as="geometry" />
        </mxCell>
        <mxCell id="cC5hEAi2528CEINLcLog-54" value="return i+1" style="rounded=1;whiteSpace=wrap;html=1;absoluteArcSize=1;arcSize=14;strokeWidth=2;" parent="cC5hEAi2528CEINLcLog-7" vertex="1">
          <mxGeometry x="35" y="470" width="145" height="30" as="geometry" />
        </mxCell>
        <mxCell id="cC5hEAi2528CEINLcLog-56" style="edgeStyle=orthogonalEdgeStyle;rounded=0;orthogonalLoop=1;jettySize=auto;html=1;exitX=0;exitY=0.5;exitDx=0;exitDy=0;entryX=1;entryY=0.5;entryDx=0;entryDy=0;" parent="cC5hEAi2528CEINLcLog-5" source="cC5hEAi2528CEINLcLog-54" target="cC5hEAi2528CEINLcLog-53" edge="1">
          <mxGeometry relative="1" as="geometry" />
        </mxCell>
        <mxCell id="cC5hEAi2528CEINLcLog-47" value="Y" style="text;html=1;align=center;verticalAlign=middle;resizable=0;points=[];autosize=1;strokeColor=none;fillColor=none;" parent="1" vertex="1">
          <mxGeometry x="515" y="475" width="30" height="30" as="geometry" />
        </mxCell>
        <mxCell id="br5I2ljXC-K01phI8v-s-2" value="j++" style="text;html=1;align=center;verticalAlign=middle;resizable=0;points=[];autosize=1;strokeColor=none;fillColor=none;" vertex="1" parent="1">
          <mxGeometry x="430" y="355" width="40" height="30" as="geometry" />
        </mxCell>
      </root>
    </mxGraphModel>
  </diagram>
</mxfile>
